<svg xmlns="http://www.w3.org/2000/svg" height="614pt" version="1.1" viewBox="-38 0 614 614.011" width="614pt">
<g id="surface1">
<path d="M 522.109375 356.113281 C 521.945312 336.160156 505.652344 320.117188 485.699219 320.28125 C 480.757812 320.328125 475.878906 321.375 471.359375 323.371094 C 466.339844 318.054688 461.101562 312.753906 455.644531 307.4375 C 469.144531 294.527344 481.871094 280.828125 493.734375 266.402344 C 534.222656 216.527344 546.992188 173.746094 529.855469 146.351562 C 508.03125 111.429688 445.386719 109.574219 364.515625 135.4375 C 344.324219 52.492188 309.621094 0 268.585938 0 C 252.976562 0 230.058594 7.96875 207.90625 44.199219 C 206.410156 44.101562 204.925781 44.101562 203.429688 44.199219 C 183.546875 44.070312 167.304688 60.078125 167.175781 79.964844 C 167.097656 91.007812 172.097656 101.484375 180.730469 108.375 C 178.035156 117.105469 175.523438 126.238281 173.199219 135.765625 C 92.21875 108.808594 29.027344 110.664062 7.421875 145.589844 C -9.714844 173.308594 3.054688 216.089844 43.546875 265.636719 C 55.398438 280.207031 68.121094 294.058594 81.632812 307.109375 C 68.132812 320.019531 55.40625 333.71875 43.546875 348.144531 C 3.054688 398.019531 -9.714844 440.800781 7.421875 468.195312 C 15.714844 481.617188 34.378906 496.570312 75.847656 496.570312 L 86.21875 496.570312 C 94.183594 514.796875 115.421875 523.113281 133.648438 515.132812 C 146.210938 509.644531 154.558594 497.496094 155.191406 483.800781 C 160.976562 482.164062 166.757812 480.417969 172.652344 478.453125 C 192.734375 561.285156 227.21875 614 268.582031 614 C 309.945312 614 344.324219 561.507812 364.402344 478.890625 C 395.269531 489.769531 427.628906 495.847656 460.335938 496.898438 C 493.074219 496.898438 517.847656 487.621094 529.746094 468.414062 C 543.496094 446.585938 538.039062 414.9375 514.792969 377.503906 C 519.476562 371.347656 522.042969 363.839844 522.109375 356.113281 Z M 149.734375 462.738281 C 139.203125 445.789062 116.941406 440.582031 99.992188 451.113281 C 91.46875 456.40625 85.53125 465.007812 83.597656 474.851562 C 54.351562 476.269531 33.941406 470.050781 25.867188 457.171875 C 14.296875 438.511719 27.175781 402.605469 60.355469 362.007812 C 71.910156 347.992188 84.296875 334.691406 97.460938 322.171875 C 116.230469 338.96875 135.867188 354.78125 156.285156 369.539062 C 158.28125 398.851562 162.113281 428.011719 167.742188 456.847656 C 161.742188 459.246094 155.738281 460.992188 149.734375 462.738281 Z M 154.863281 341.050781 C 140.316406 329.917969 126.566406 318.601562 113.613281 307.109375 C 126.488281 295.648438 140.351562 284.300781 154.972656 273.058594 C 154.972656 283.972656 154.210938 295.652344 154.210938 307.109375 C 154.210938 318.566406 154.429688 329.917969 154.863281 341.050781 Z M 156.609375 244.574219 C 136.117188 259.394531 116.40625 275.273438 97.566406 292.15625 C 84.417969 279.714844 72.019531 266.476562 60.460938 252.542969 C 27.722656 211.613281 14.40625 176.144531 25.972656 157.375 C 40.378906 134.128906 94.730469 133.253906 167.851562 157.375 C 162.296875 186.21875 158.542969 215.382812 156.609375 244.683594 Z M 357.3125 228.3125 C 347.925781 221.984375 338.539062 215.761719 328.71875 209.761719 C 316.496094 202.230469 304.382812 195.246094 292.265625 188.480469 C 311.585938 179.09375 330.246094 171.015625 348.035156 164.359375 C 351.964844 184.222656 355.128906 205.613281 357.3125 228.421875 Z M 201.140625 116.011719 L 203.539062 116.011719 C 223.488281 116.035156 239.6875 99.871094 239.695312 79.921875 C 239.707031 69.78125 235.453125 60.101562 227.984375 53.257812 C 240.972656 32.742188 255.160156 21.609375 268.695312 21.609375 C 295.976562 21.609375 325.226562 67.230469 343.34375 142.3125 C 317.78125 152.117188 292.824219 163.421875 268.582031 176.148438 C 244.367188 163.605469 219.441406 152.496094 193.933594 142.859375 C 196.117188 133.472656 198.519531 124.523438 201.140625 116.011719 Z M 189.132812 164.578125 C 206.921875 171.234375 225.585938 179.3125 244.902344 188.695312 C 232.898438 195.351562 220.78125 202.339844 208.449219 209.976562 C 198.738281 215.980469 189.242188 222.199219 179.859375 228.53125 C 182.039062 206.050781 185.203125 184.769531 189.132812 164.578125 Z M 179.859375 385.796875 C 189.242188 392.125 198.738281 398.347656 208.449219 404.347656 C 220.671875 411.628906 232.789062 418.898438 244.792969 426.175781 C 225.914062 435.34375 207.25 443.3125 189.132812 450.1875 C 185.203125 429.996094 182.039062 408.605469 179.859375 385.796875 Z M 268.585938 592.390625 C 241.191406 592.390625 211.941406 546.664062 193.828125 471.25 C 219.363281 461.636719 244.324219 450.558594 268.585938 438.074219 C 292.867188 450.65625 317.859375 461.8125 343.453125 471.46875 C 325.117188 547.210938 295.871094 592.390625 268.585938 592.390625 Z M 348.035156 449.75 C 330.246094 443.09375 311.585938 435.015625 292.265625 425.628906 C 304.492188 418.863281 316.605469 411.878906 328.71875 404.457031 C 338.539062 398.453125 348.035156 392.234375 357.3125 385.90625 C 355.128906 408.605469 351.964844 429.996094 348.035156 449.640625 Z M 359.496094 357.859375 C 345.855469 367.460938 331.773438 376.847656 317.148438 385.90625 C 302.523438 394.964844 284.84375 405.332031 268.585938 413.625 C 252.652344 405.222656 236.390625 396.054688 219.910156 385.796875 C 205.285156 376.738281 191.207031 367.351562 177.566406 357.75 C 176.582031 341.488281 176.035156 325.007812 176.035156 307.109375 C 176.035156 289.210938 176.582031 273.058594 177.671875 256.46875 C 191.207031 246.867188 205.285156 237.480469 219.910156 228.421875 C 236.386719 218.164062 252.648438 208.996094 268.582031 200.59375 C 284.519531 208.996094 300.78125 218.164062 317.257812 228.421875 C 331.773438 237.371094 345.960938 246.757812 359.605469 256.46875 C 360.585938 272.730469 361.132812 289.210938 361.132812 307.109375 C 361.132812 325.007812 360.585938 341.488281 359.496094 357.75 Z M 511.195312 157.046875 C 522.761719 175.710938 509.882812 211.613281 476.707031 252.214844 C 465.160156 266.226562 452.761719 279.53125 439.601562 292.046875 C 420.839844 275.242188 401.207031 259.425781 380.777344 244.683594 C 378.78125 215.367188 374.949219 186.207031 369.316406 157.375 C 443.203125 132.492188 496.789062 133.910156 511.195312 157.046875 Z M 382.304688 273.167969 C 396.929688 284.300781 410.460938 296.195312 423.558594 307.109375 C 410.757812 318.535156 397.003906 329.84375 382.304688 341.050781 C 382.742188 329.917969 382.960938 318.601562 382.960938 307.109375 C 382.960938 295.617188 382.742188 284.300781 382.304688 273.167969 Z M 511.195312 457.171875 C 496.898438 480.417969 442.65625 481.292969 369.316406 457.171875 C 374.949219 428.339844 378.777344 399.175781 380.777344 369.863281 C 401.195312 355.109375 420.828125 339.292969 439.601562 322.496094 C 444.980469 327.660156 450.109375 332.789062 454.988281 337.886719 C 451.550781 343.460938 449.695312 349.878906 449.640625 356.4375 C 449.640625 376.453125 465.855469 392.671875 485.871094 392.671875 C 489.59375 392.582031 493.273438 391.929688 496.785156 390.707031 C 514.796875 419.300781 519.597656 442.875 511.195312 457.171875 Z M 511.195312 457.171875 " style=" stroke:none;fill-rule:nonzero;fill:rgb(0%,0%,0%);fill-opacity:1;" />
<path d="M 319.332031 307.109375 C 319.332031 335.136719 296.613281 357.859375 268.585938 357.859375 C 240.558594 357.859375 217.835938 335.136719 217.835938 307.109375 C 217.835938 279.082031 240.558594 256.363281 268.585938 256.363281 C 296.613281 256.363281 319.332031 279.082031 319.332031 307.109375 Z M 319.332031 307.109375 " style=" stroke:none;fill-rule:nonzero;fill:rgb(0%,0%,0%);fill-opacity:1;" />
</g>
</svg>